<svg width="1991" height="2400" xmlns="http://www.w3.org/2000/svg" preserveAspectRatio="xMidYMid meet">
 <g>
  <title>Layer 1</title>
  <g transform="translate(0,2400) scale(0.10000000149011612,-0.10000000149011612) " fill="#000000">
   <path d="m11131,23985c-332,-75 -587,-274 -732,-570c-156,-322 -139,-694 47,-1007c57,-95 208,-254 299,-315c136,-91 290,-151 444,-174c109,-15 301,-6 406,20c293,72 545,273 680,541c87,173 122,336 112,529c-19,390 -241,724 -592,892c-157,75 -230,91 -430,95c-123,3 -188,0 -234,-11z"/>
   <path d="m9500,22164c-114,-24 -224,-86 -316,-178c-86,-86 -118,-136 -161,-250c-24,-64 -27,-84 -28,-206c0,-113 4,-147 22,-205c52,-163 177,-312 324,-383c112,-55 182,-72 304,-72c187,0 339,62 465,189c137,139 197,298 188,500c-9,180 -72,317 -208,444c-154,146 -378,207 -590,161z"/>
   <path d="m6564,20493c4,-9 171,-333 371,-720l365,-703l0,-3206l0,-3206l-3645,-6315c-2005,-3472 -3648,-6320 -3652,-6328c-4,-13 1232,-15 9952,-15c7962,0 9956,3 9952,13c-3,6 -1648,2856 -3656,6332l-3651,6320l0,3198l0,3199l366,706c202,389 371,715 376,725c8,16 -156,17 -3388,17c-3185,0 -3396,-1 -3390,-17zm5338,-9531c420,-112 720,-452 778,-880c71,-519 -271,-1014 -790,-1145c-69,-17 -115,-21 -245,-21c-144,-1 -170,2 -259,27c-191,53 -337,137 -472,271c-157,157 -260,354 -294,569c-18,108 -8,330 19,430c75,281 262,518 514,652c111,59 170,81 280,105c122,26 353,22 469,-8zm4119,-6292l2058,-3595l-4059,-3c-2232,-1 -5888,-1 -8124,0l-4065,3l853,1490c469,820 1389,2428 2045,3575c656,1147 1199,2095 1207,2108l14,22l4007,-2l4007,-3l2057,-3595z"/>
   <path d="m7335,7594c-421,-67 -756,-355 -869,-748c-154,-530 128,-1085 646,-1276c129,-47 177,-54 353,-55c199,0 288,18 441,90c127,59 205,114 304,214c131,132 214,272 264,444c73,251 51,503 -63,742c-135,283 -381,484 -691,565c-84,21 -310,35 -385,24z"/>
   <path d="m9005,5754c-112,-28 -202,-81 -296,-174c-71,-70 -94,-100 -127,-170c-95,-199 -94,-403 5,-591c114,-219 333,-352 578,-352c111,0 177,14 280,63c145,69 252,176 317,319c90,196 72,441 -46,624c-76,120 -211,225 -346,269c-85,28 -277,34 -365,12z"/>
  </g>
 </g>
</svg>