<?xml version="1.0" encoding="UTF-8" ?>
<!DOCTYPE svg PUBLIC "-//W3C//DTD SVG 1.1//EN" "http://www.w3.org/Graphics/SVG/1.1/DTD/svg11.dtd">
<svg width="400" height="100" viewBox="0 0 400 100" version="1.1" xmlns="http://www.w3.org/2000/svg">
<path fill="#ffffff" d=" M 0.00 0.00 L 400.00 0.00 L 400.00 100.00 L 0.00 100.00 L 0.00 71.63 C 15.41 71.69 30.82 71.63 46.24 71.67 C 46.24 68.99 46.24 66.32 46.24 63.65 C 34.30 63.67 22.36 63.62 10.42 63.67 C 10.43 60.33 10.43 56.99 10.43 53.64 C 18.46 53.67 26.49 53.63 34.52 53.67 C 34.51 51.14 34.50 48.60 34.50 46.07 C 26.48 46.14 18.47 46.08 10.46 46.11 C 10.43 42.99 10.42 39.86 10.42 36.73 C 22.10 36.75 33.78 36.75 45.46 36.73 C 45.44 34.12 45.42 31.51 45.40 28.90 C 30.27 29.26 15.13 28.68 0.00 29.10 L 0.00 0.00 Z" />
<path fill="#634ea0" d=" M 55.04 28.62 C 58.35 26.66 61.64 24.68 64.91 22.66 C 67.80 27.82 70.70 32.98 73.63 38.12 C 75.89 42.10 78.13 46.09 80.37 50.09 C 78.12 54.13 75.86 58.16 73.56 62.18 C 70.66 67.28 67.78 72.39 64.93 77.53 C 61.65 75.58 58.36 73.64 55.05 71.74 C 57.91 66.41 61.00 61.21 63.89 55.90 C 57.99 55.89 52.09 55.89 46.20 55.91 C 46.20 52.06 46.20 48.22 46.18 44.38 C 52.09 44.38 58.00 44.38 63.90 44.38 C 60.93 39.14 57.92 33.91 55.04 28.62 Z" />
<path fill="#99ca3c" d=" M 82.31 22.68 C 85.62 24.69 88.93 26.68 92.22 28.72 C 89.18 33.92 86.33 39.22 83.25 44.39 C 89.17 44.38 95.10 44.38 101.02 44.38 C 101.09 48.21 101.10 52.03 101.09 55.85 C 95.15 55.92 89.21 55.89 83.27 55.88 C 86.25 61.15 89.23 66.42 92.19 71.70 C 88.90 73.62 85.61 75.57 82.31 77.50 C 79.38 72.40 76.52 67.26 73.56 62.18 C 75.86 58.16 78.12 54.13 80.37 50.09 C 78.13 46.09 75.89 42.10 73.63 38.12 C 76.52 32.97 79.42 27.83 82.31 22.68 Z" />
<path fill="#221e1f" d=" M 390.53 27.68 C 393.75 26.62 397.53 29.65 396.99 33.07 C 397.14 36.97 392.06 39.30 389.00 37.09 C 385.24 34.94 386.29 28.55 390.53 27.68 Z" />
<path fill="#221e1f" d=" M 0.00 29.10 C 15.13 28.68 30.27 29.26 45.40 28.90 C 45.42 31.51 45.44 34.12 45.46 36.73 C 33.78 36.75 22.10 36.75 10.42 36.73 C 10.42 39.86 10.43 42.99 10.46 46.11 C 18.47 46.08 26.48 46.14 34.50 46.07 C 34.50 48.60 34.51 51.14 34.52 53.67 C 26.49 53.63 18.46 53.67 10.43 53.64 C 10.43 56.99 10.43 60.33 10.42 63.67 C 22.36 63.62 34.30 63.67 46.24 63.65 C 46.24 66.32 46.24 68.99 46.24 71.67 C 30.82 71.63 15.41 71.69 0.00 71.63 L 0.00 29.10 Z" />
<path fill="#221e1f" d=" M 100.85 29.11 C 118.09 28.90 135.34 28.90 152.58 28.97 C 152.59 31.69 152.58 34.41 152.53 37.13 C 145.66 37.11 138.80 37.08 131.93 37.15 C 132.11 48.67 131.90 60.19 132.08 71.72 C 128.55 71.75 125.03 71.73 121.50 71.78 C 121.48 60.21 121.51 48.64 121.49 37.08 C 114.69 37.15 107.90 37.08 101.10 37.13 C 100.92 34.46 100.87 31.78 100.85 29.11 Z" />
<path fill="#221e1f" d=" M 158.52 28.89 C 167.02 29.24 175.52 28.69 184.02 29.06 C 190.45 29.36 197.58 27.89 203.26 31.73 C 209.52 35.62 210.79 44.78 207.03 50.82 C 205.33 53.49 202.37 54.87 199.53 56.00 C 203.18 61.20 206.65 66.52 210.29 71.74 C 206.39 71.64 202.46 72.00 198.58 71.56 C 194.95 66.70 191.76 61.52 188.21 56.60 C 181.73 56.64 175.26 56.61 168.79 56.62 C 168.79 61.66 168.78 66.71 168.81 71.75 C 165.37 71.74 161.94 71.73 158.50 71.77 C 158.51 57.48 158.47 43.19 158.52 28.89 Z" />
<path fill="#221e1f" d=" M 212.66 71.77 C 221.12 57.58 229.39 43.27 237.83 29.07 C 241.25 29.12 244.68 29.11 248.11 29.08 C 256.61 43.32 265.19 57.52 273.63 71.80 C 269.72 71.76 265.82 71.75 261.92 71.79 C 260.13 68.97 258.34 66.15 256.59 63.30 C 247.15 63.32 237.72 63.30 228.28 63.31 C 226.58 66.15 224.85 68.97 223.11 71.79 C 219.62 71.76 216.14 71.77 212.66 71.77 Z" />
<path fill="#221e1f" d=" M 276.37 28.92 C 286.94 29.33 297.52 28.55 308.08 29.22 C 315.30 29.69 323.20 32.49 326.86 39.18 C 331.44 47.81 330.25 59.98 322.26 66.23 C 317.28 70.60 310.44 71.66 304.03 71.73 C 294.80 71.78 285.57 71.70 276.33 71.76 C 276.37 57.48 276.31 43.20 276.37 28.92 Z" />
<path fill="#221e1f" d=" M 336.16 29.09 C 351.25 28.86 366.35 29.11 381.45 28.93 C 381.46 31.55 381.46 34.17 381.45 36.79 C 369.79 36.68 358.13 36.78 346.47 36.73 C 346.46 39.85 346.46 42.97 346.47 46.08 C 354.48 46.11 362.49 46.14 370.49 46.06 C 370.50 48.60 370.51 51.14 370.52 53.68 C 362.50 53.62 354.48 53.68 346.47 53.64 C 346.46 56.99 346.46 60.33 346.47 63.68 C 358.39 63.61 370.31 63.68 382.24 63.65 C 382.23 66.31 382.23 68.98 382.24 71.65 C 366.88 71.66 351.51 71.65 336.14 71.66 C 336.19 57.47 336.16 43.28 336.16 29.09 Z" />
<path fill="#ffffff" d=" M 387.73 33.02 C 387.25 29.22 392.94 26.88 395.06 30.25 C 396.77 32.11 395.50 34.54 394.58 36.43 C 393.25 34.60 393.41 32.53 393.64 30.45 C 392.31 30.26 390.97 30.12 389.64 30.03 C 389.74 31.65 389.37 33.38 390.24 34.85 C 391.46 34.06 390.69 32.10 391.03 30.89 L 392.52 31.04 C 392.23 32.12 391.97 33.20 391.74 34.29 C 392.36 34.80 393.61 35.81 394.23 36.32 C 391.52 37.92 388.07 36.07 387.73 33.02 Z" />
<path fill="#ffffff" d=" M 168.79 37.21 C 176.55 37.23 184.32 37.16 192.08 37.22 C 194.57 37.16 197.29 38.13 198.50 40.46 C 199.22 42.63 199.08 45.52 197.03 46.95 C 195.08 48.53 192.41 48.33 190.05 48.44 C 182.96 48.42 175.87 48.42 168.79 48.42 C 168.79 44.68 168.79 40.94 168.79 37.21 Z" />
<path fill="#ffffff" d=" M 286.79 37.12 C 293.22 37.15 299.66 37.02 306.09 37.16 C 310.54 37.29 315.51 39.00 317.64 43.20 C 319.75 47.67 319.74 53.17 317.55 57.60 C 315.30 61.70 310.27 62.65 306.02 63.08 C 299.62 63.48 293.20 63.15 286.79 63.26 C 286.79 54.55 286.79 45.83 286.79 37.12 Z" />
<path fill="#ffffff" d=" M 232.74 55.24 C 236.02 49.44 239.35 43.67 242.71 37.92 C 245.88 43.70 249.08 49.48 252.30 55.23 C 245.78 55.23 239.26 55.23 232.74 55.24 Z" />
</svg>
